<svg width="100" height="100" viewBox="0 0 100 100" fill="none" xmlns="http://www.w3.org/2000/svg">
<g clip-path="url(#clip0_1_338)">
<rect x="-4.00012" y="-3.99998" width="108" height="108" rx="8" fill="#0066AE"/>
<path d="M21.7878 56.0307C21.7878 55.0314 21.7986 52.3604 21.774 52.0313C21.7955 48.0568 18.9057 45.2531 17.08 45.4717C15.8167 45.5813 14.758 46.0964 14.1895 47.5783C13.6627 48.9593 14.1337 50.7963 15.8855 51.2273C17.7586 51.6902 18.8523 52.0754 19.6439 52.6188C20.6138 53.284 21.4056 54.5549 21.4266 56.0323" fill="white"/>
<path d="M22.5354 62.0722C19.2327 62.0722 15.8384 61.2588 12.4486 59.6499L12.3654 59.609L12.3256 59.5242C10.8044 56.3132 10 52.8011 10 49.365C10 45.9341 10.7714 42.5723 12.2938 39.3656L12.3356 39.2804L12.4203 39.2379C15.5561 37.7525 18.9293 37 22.4496 37C25.7288 37 29.2309 37.8377 32.5757 39.4267L32.6616 39.4649L32.7012 39.5517C34.2515 42.8219 35.0691 46.333 35.0691 49.7122C35.0691 53.0783 34.2841 56.443 32.7319 59.7111L32.691 59.797L32.6047 59.8368C29.5169 61.2985 26.0346 62.0722 22.5354 62.0722V62.0722ZM12.7623 59.2096C16.0554 60.7586 19.3396 61.5409 22.5354 61.5409C25.9241 61.5409 29.2942 60.8001 32.2941 59.396C33.7843 56.2291 34.5397 52.9698 34.5397 49.7122C34.5397 46.4415 33.7513 43.0393 32.26 39.8654C29.0139 38.3395 25.6239 37.5303 22.4496 37.5303C19.0415 37.5303 15.7749 38.2531 12.7338 39.6791C11.2741 42.7873 10.5312 46.0442 10.5312 49.365C10.5312 52.6922 11.3033 56.0958 12.7623 59.2096Z" fill="white"/>
<path d="M21.005 56.0323C21.0111 54.7514 20.2962 53.6187 19.3618 53.01C18.5329 52.4721 17.4201 52.1186 15.625 51.6633C15.0701 51.5214 14.4897 51.2061 14.31 50.8042C13.8346 51.2832 13.7483 52.36 13.8319 52.9892C13.9291 53.7175 14.7801 54.9177 16.0615 54.9648C16.844 54.9962 17.8333 54.7963 18.3078 54.6956C19.1262 54.5188 20.4212 55.0314 20.6273 56.0307" fill="white"/>
<path d="M22.4496 39.2773C20.277 39.2773 18.4002 40.7101 18.407 43.1894C18.4138 45.2743 20.0905 46.3905 20.6888 47.1877C21.5929 48.389 22.0823 49.811 22.1331 51.9868C22.1727 53.7184 22.1706 55.4283 22.1795 56.0343H22.6591C22.6507 55.4003 22.629 53.5851 22.6539 51.9332C22.6864 49.7568 23.1934 48.389 24.098 47.1877C24.7015 46.3905 26.3768 45.2743 26.3805 43.1894C26.3886 40.7101 24.513 39.2773 22.3422 39.2773" fill="white"/>
<path d="M23.0012 56.0307C23.0012 55.0314 22.9899 52.3604 23.0141 52.0313C22.9928 48.0568 25.8808 45.2531 27.708 45.4717C28.9713 45.5813 30.0289 46.0964 30.599 47.5783C31.1254 48.9593 30.6516 50.7963 28.9019 51.2273C27.0279 51.6902 25.9355 52.0754 25.1419 52.6188C24.1731 53.284 23.4367 54.5549 23.4141 56.0323" fill="white"/>
<path d="M23.7833 56.0323C23.7765 54.7514 24.4912 53.6187 25.4229 53.01C26.2551 52.4721 27.3692 52.1186 29.1628 51.6633C29.7188 51.5214 30.2986 51.2061 30.4751 50.8042C30.9527 51.2832 31.0388 52.36 30.9552 52.9892C30.856 53.7175 30.0072 54.9177 28.7281 54.9648C27.9458 54.9962 26.9513 54.7963 26.4789 54.6956C25.6636 54.5188 24.3651 55.0314 24.158 56.0307" fill="white"/>
<path d="M24.4536 60.1675L24.1755 58.1389L24.8466 58.0372C25.01 58.0148 25.2089 58.0433 25.2885 58.1457C25.3764 58.2526 25.4033 58.341 25.4203 58.4811C25.4456 58.6545 25.3954 58.855 25.2001 58.9549V58.961C25.4183 58.961 25.55 59.1176 25.5882 59.382C25.5939 59.4379 25.6104 59.5728 25.5939 59.6854C25.5496 59.9532 25.3898 60.0393 25.1201 60.0771L24.4536 60.1675ZM24.8855 59.8043C24.9651 59.7929 25.0458 59.7887 25.1088 59.7485C25.2053 59.6854 25.1965 59.5505 25.1832 59.4503C25.1495 59.2302 25.0921 59.1466 24.8586 59.1811L24.7119 59.2037L24.8048 59.8156L24.8855 59.8043ZM24.7449 58.8669C24.8337 58.8525 24.9542 58.8418 25.0044 58.7575C25.0306 58.7013 25.0643 58.6565 25.0421 58.5313C25.0148 58.3828 24.9655 58.2908 24.777 58.3265L24.6014 58.3548L24.6705 58.8746" fill="white"/>
<path d="M27.3605 58.9474C27.3657 58.9852 27.3718 59.0272 27.3741 59.0649C27.4283 59.435 27.3605 59.7412 26.9446 59.8255C26.3298 59.944 26.2121 59.562 26.1038 59.0272L26.0462 58.7379C25.9614 58.2261 25.925 57.8387 26.5245 57.7194C26.8624 57.6577 27.0857 57.7922 27.1786 58.1285C27.193 58.1787 27.2111 58.2284 27.2179 58.2788L26.8502 58.3548C26.8077 58.2284 26.7514 58.0026 26.5859 58.0216C26.2889 58.0573 26.387 58.4269 26.4175 58.5812L26.5281 59.1366C26.5613 59.3045 26.6273 59.5728 26.8843 59.5211C27.0929 59.4793 27.0021 59.1542 26.9835 59.0211" fill="white"/>
<path d="M27.9507 59.5613L27.8235 57.4619L28.3176 57.3112L29.3535 59.1371L28.9645 59.2535L28.719 58.7894L28.2871 58.9192L28.3429 59.4467L27.9507 59.5613ZM28.2509 58.5801L28.5631 58.4897L28.1485 57.6403" fill="white"/>
<path d="M15.7467 57.9741C15.9013 57.4791 16.0399 57.1147 16.6298 57.2766C16.9456 57.3647 17.1414 57.504 17.1321 57.8708C17.1306 57.9524 17.1036 58.0356 17.086 58.1163L16.7187 58.0148C16.7668 57.8123 16.7973 57.6516 16.5478 57.5747C16.2594 57.4956 16.1891 57.8453 16.1493 57.9963L15.9999 58.5467C15.9524 58.7101 15.8955 58.9802 16.1493 59.0498C16.3591 59.1063 16.4863 58.9004 16.5623 58.5998L16.3053 58.5317L16.3941 58.2133L16.9983 58.4077L16.7114 59.4684L16.4334 59.3929L16.496 59.1687H16.4881C16.3602 59.352 16.204 59.3712 16.0672 59.345C15.4631 59.1816 15.5261 58.7867 15.6703 58.2591" fill="white"/>
<path d="M17.9956 58.8701L17.8136 59.7331L17.4041 59.6445L17.8405 57.6294L18.5387 57.7872C18.9474 57.8753 19.0708 58.0573 19.0129 58.4318C18.9799 58.6468 18.8739 58.8785 18.6151 58.8597L18.6124 58.8562C18.8312 58.9328 18.8497 59.0431 18.8115 59.2339C18.7951 59.315 18.6814 59.8076 18.7598 59.8871L18.7625 59.9475L18.3387 59.8369C18.3211 59.7004 18.381 59.455 18.4047 59.3191C18.4286 59.1989 18.4668 59.0293 18.3448 58.9656C18.2492 58.9147 18.2137 58.9172 18.1057 58.8924L17.9956 58.8701ZM18.0654 58.558L18.3412 58.6323C18.5087 58.6565 18.6018 58.5697 18.6348 58.3674C18.6646 58.1818 18.626 58.1093 18.4757 58.0733L18.18 58.0135" fill="white"/>
<path d="M20.6225 58.0797L21.0276 58.1267L20.8531 59.5432C20.7683 59.9924 20.5947 60.1888 20.1006 60.1273C19.5979 60.0638 19.4786 59.8348 19.5091 59.3821L19.6847 57.9667L20.0929 58.0135L19.9177 59.3972C19.8992 59.5475 19.8644 59.7702 20.1318 59.7971C20.3689 59.8151 20.4227 59.6581 20.4494 59.4628" fill="white"/>
<path d="M21.4741 60.2048L21.596 58.1791L22.3742 58.2128C22.7419 58.2309 22.8382 58.5313 22.8267 58.8179C22.8161 58.9922 22.7616 59.1868 22.6097 59.2923C22.4852 59.3821 22.3251 59.4033 22.1766 59.3961L21.923 59.382L21.8724 60.231L21.4741 60.2048ZM21.9345 59.0731L22.1407 59.0846C22.3082 59.0907 22.4192 59.0245 22.4336 58.7786C22.4418 58.5424 22.3525 58.5024 22.1355 58.4929L21.9721 58.4873" fill="white"/>
<path d="M76.3618 41.2352L73.2688 46.8491C72.1013 45.9011 70.6758 45.2034 68.8569 45.2034C64.5526 45.2034 62.8042 48.4119 62.8042 50.672C62.8042 52.3496 63.9027 54.8248 67.7326 54.8248C69.3401 54.8248 71.6255 53.7064 72.2833 53.1976L69.2242 59.7107C67.7661 60.0016 67.2871 60.182 66.0527 60.2202C59.1979 60.4248 56.4279 56.2138 56.4299 51.9108C56.4345 46.2225 61.4919 39.3047 69.8758 39.3047C70.3896 39.3047 71.018 39.4823 71.5552 39.6792L72.0982 38.9848" fill="white"/>
<path d="M89.1241 39.1609L90 59.5652H83.4817L83.4779 56.0657H79.0332L77.5703 59.5652H70.5012L77.8917 44.9948L76.2252 44.9839L79.3917 39.1609H89.1241ZM83.4356 45.403L80.9226 51.3379H83.5113" fill="white"/>
<path d="M52.3149 39.1609C55.5428 39.179 57.3669 40.9312 57.3669 43.4623C57.3669 45.7956 55.4431 47.8611 53.3313 48.9291C55.5055 49.7283 55.6936 51.6902 55.6936 53.0783C55.6936 56.4317 52.3287 59.5652 47.9547 59.5652H38.4158L42.1367 45.1977L40.6083 45.1889L43.7327 39.1609C43.7327 39.1609 49.69 39.1428 52.3149 39.1609V39.1609ZM49.1479 47.4336C49.8156 47.4336 50.9946 47.2646 51.2894 45.9723C51.6124 44.5696 50.5059 44.5318 49.9752 44.5318L48.0788 44.5235L47.4175 47.4337L49.1479 47.4336ZM46.4668 51.0393L45.5936 54.3927H47.8266C48.7051 54.3927 49.9024 53.9567 50.1958 52.8654C50.4856 51.7709 49.6486 51.0393 48.7732 51.0393" fill="white"/>
</g>
<defs>
<clipPath id="clip0_1_338">
<rect width="100" height="100" rx="25" fill="white"/>
</clipPath>
</defs>
</svg>
