<svg width="65" height="38" viewBox="0 0 65 38" fill="none" xmlns="http://www.w3.org/2000/svg">
<path d="M15 2L8.77617 9.5575C8.29962 10.1362 8.18668 10.9328 8.48361 11.6211L18.479 34.7922C18.7952 35.5252 19.5171 36 20.3154 36H53.6335C54.1864 36 54.7145 35.7712 55.0926 35.3679L62 28" stroke="#0071CE" stroke-width="4"/>
<path d="M24.4721 27.8123L14.0937 4.46074C13.5793 3.30349 14.4264 2 15.6928 2H32.7639C33.5215 2 34.214 2.428 34.5528 3.10557L38.9472 11.8944C39.286 12.572 39.9785 13 40.7361 13H54.692C55.4866 13 56.2058 13.4704 56.5243 14.1984L61.9275 26.5486C62.4333 27.7048 61.5862 29 60.3242 29H26.2997C25.5094 29 24.7931 28.5345 24.4721 27.8123Z" stroke="#0071CE" stroke-width="4"/>
<path d="M5.09995 15.4381L11 16L17 13L5.08719 14.444C4.49312 14.516 4.50423 15.3814 5.09995 15.4381Z" fill="#0071CE" stroke="#0071CE" stroke-width="2"/>
<rect x="24" y="7" width="5" height="3" rx="1.5" fill="#0071CE"/>
<path d="M24.5 29L20 34.5" stroke="#0071CE" stroke-width="4"/>
</svg>
