<svg width="270" height="38" viewBox="0 0 270 38" fill="none" xmlns="http://www.w3.org/2000/svg">
<path d="M15 2L8.77617 9.5575C8.29962 10.1362 8.18668 10.9328 8.48361 11.6211L18.479 34.7922C18.7952 35.5252 19.5171 36 20.3154 36H53.6335C54.1864 36 54.7145 35.7712 55.0926 35.3679L62 28" stroke="#0071CE" stroke-width="4"/>
<path d="M24.4721 27.8123L14.0937 4.46074C13.5793 3.30349 14.4264 2 15.6928 2H32.7639C33.5215 2 34.214 2.428 34.5528 3.10557L38.9472 11.8944C39.286 12.572 39.9785 13 40.7361 13H54.692C55.4866 13 56.2058 13.4704 56.5243 14.1984L61.9275 26.5486C62.4333 27.7048 61.5862 29 60.3242 29H26.2997C25.5094 29 24.7931 28.5345 24.4721 27.8123Z" stroke="#0071CE" stroke-width="4"/>
<path d="M5.09995 15.4381L11 16L17 13L5.08719 14.444C4.49312 14.516 4.50423 15.3814 5.09995 15.4381Z" fill="#0071CE" stroke="#0071CE" stroke-width="2"/>
<rect x="24" y="7" width="5" height="3" rx="1.5" fill="#0071CE"/>
<path d="M24.5 29L20 34.5" stroke="#0071CE" stroke-width="4"/>
<path d="M87.384 33H77.916V6.684H87.132C94.908 6.684 100.272 12.048 100.272 19.896C100.272 27.636 95.016 33 87.384 33ZM86.7 10.932H82.524V28.752H86.952C92.208 28.752 95.412 25.368 95.412 19.896C95.412 14.316 92.136 10.932 86.7 10.932ZM116.176 15.216H120.568V33H116.5L116.176 30.624C115.096 32.316 112.792 33.468 110.416 33.468C106.312 33.468 103.9 30.696 103.9 26.34V15.216H108.292V24.792C108.292 28.176 109.624 29.544 112.072 29.544C114.844 29.544 116.176 27.924 116.176 24.54V15.216ZM123.909 24.072C123.909 18.564 127.545 14.676 132.801 14.676C137.661 14.676 140.973 17.376 141.441 21.66H137.049C136.545 19.644 135.069 18.6 132.981 18.6C130.173 18.6 128.301 20.724 128.301 24.072C128.301 27.42 130.029 29.508 132.837 29.508C135.033 29.508 136.581 28.428 137.049 26.484H141.477C140.937 30.624 137.481 33.468 132.837 33.468C127.437 33.468 123.909 29.724 123.909 24.072ZM149.374 33H145.018V6.216H149.374V22.668L156.286 15.216H161.794L155.026 22.272L161.65 33H156.61L151.966 25.512L149.374 28.212V33ZM163.114 27.6H167.29C167.326 29.148 168.478 30.12 170.494 30.12C172.546 30.12 173.662 29.292 173.662 27.996C173.662 27.096 173.194 26.448 171.61 26.088L168.406 25.332C165.202 24.612 163.654 23.1 163.654 20.256C163.654 16.764 166.606 14.676 170.71 14.676C174.706 14.676 177.406 16.98 177.442 20.436H173.266C173.23 18.924 172.222 17.952 170.53 17.952C168.802 17.952 167.794 18.744 167.794 20.076C167.794 21.084 168.586 21.732 170.098 22.092L173.302 22.848C176.29 23.532 177.802 24.9 177.802 27.636C177.802 31.236 174.742 33.468 170.35 33.468C165.922 33.468 163.114 31.092 163.114 27.6ZM185.738 33H181.346V6.216H185.774V17.52C186.89 15.792 188.978 14.676 191.534 14.676C195.926 14.676 198.23 17.448 198.23 22.056V33H193.838V23.1C193.838 20.112 192.362 18.672 190.13 18.672C187.358 18.672 185.738 20.616 185.738 23.28V33ZM210.701 33.468C205.409 33.468 201.701 29.616 201.701 24.108C201.701 18.528 205.337 14.676 210.557 14.676C215.885 14.676 219.269 18.24 219.269 23.784V25.116L205.877 25.152C206.201 28.284 207.857 29.868 210.773 29.868C213.185 29.868 214.769 28.932 215.273 27.24H219.341C218.585 31.128 215.345 33.468 210.701 33.468ZM210.593 18.276C208.001 18.276 206.417 19.68 205.985 22.344H214.913C214.913 19.896 213.221 18.276 210.593 18.276ZM230.94 33.468C225.648 33.468 221.94 29.616 221.94 24.108C221.94 18.528 225.576 14.676 230.796 14.676C236.124 14.676 239.508 18.24 239.508 23.784V25.116L226.116 25.152C226.44 28.284 228.096 29.868 231.012 29.868C233.424 29.868 235.008 28.932 235.512 27.24H239.58C238.824 31.128 235.584 33.468 230.94 33.468ZM230.832 18.276C228.24 18.276 226.656 19.68 226.224 22.344H235.152C235.152 19.896 233.46 18.276 230.832 18.276ZM249.096 33H244.704V18.888H241.284V15.216H244.704V9.672H249.096V15.216H252.552V18.888H249.096V33ZM254.114 27.6H258.29C258.326 29.148 259.478 30.12 261.494 30.12C263.546 30.12 264.662 29.292 264.662 27.996C264.662 27.096 264.194 26.448 262.61 26.088L259.406 25.332C256.202 24.612 254.654 23.1 254.654 20.256C254.654 16.764 257.606 14.676 261.71 14.676C265.706 14.676 268.406 16.98 268.442 20.436H264.266C264.23 18.924 263.222 17.952 261.53 17.952C259.802 17.952 258.794 18.744 258.794 20.076C258.794 21.084 259.586 21.732 261.098 22.092L264.302 22.848C267.29 23.532 268.802 24.9 268.802 27.636C268.802 31.236 265.742 33.468 261.35 33.468C256.922 33.468 254.114 31.092 254.114 27.6Z" fill="#0071CE"/>
</svg>
