<svg width="100" height="100" viewBox="0 0 100 100" fill="none" xmlns="http://www.w3.org/2000/svg">
<g clip-path="url(#clip0_1_339)">
<rect x="-4" y="-4" width="108" height="108" rx="8" fill="#003A70"/>
<mask id="mask0_1_339" style="mask-type:luminance" maskUnits="userSpaceOnUse" x="10" y="38" width="80" height="25">
<path d="M10 62.2222H90V38H10V62.2222Z" fill="white"/>
</mask>
<g mask="url(#mask0_1_339)">
<path d="M10.0849 54.8921C10.0849 53.728 10.0628 52.7513 10.0003 51.8799H12.1941L12.2971 53.3756H12.3583C12.8545 52.585 13.7656 51.6499 15.4618 51.6499C16.7859 51.6499 17.8197 52.4009 18.2539 53.5211H18.2962C18.6495 52.9596 19.0625 52.5458 19.5371 52.254C20.0954 51.8596 20.7375 51.6499 21.5663 51.6499C23.2398 51.6499 24.9346 52.7929 24.9346 56.035V61.9947H22.4529V56.4072C22.4529 54.7254 21.8744 53.728 20.6556 53.728C19.785 53.728 19.1424 54.3518 18.8753 55.0791C18.8132 55.328 18.7506 55.6393 18.7506 55.9288V61.9947H16.2675V56.1375C16.2675 54.7254 15.7097 53.728 14.5309 53.728C13.5789 53.728 12.9387 54.4756 12.711 55.1807C12.608 55.4319 12.5643 55.7219 12.5643 56.0128V61.9947H10.0849V54.8921Z" fill="white"/>
<path d="M32.123 57.0526C30.3229 57.0101 28.607 57.4036 28.607 58.9418C28.607 59.9373 29.2486 60.3959 30.0553 60.3959C31.067 60.3959 31.8135 59.7314 32.0388 59.0046C32.1014 58.818 32.123 58.6093 32.123 58.444V57.0526ZM34.6047 59.5652C34.6047 60.4786 34.6466 61.3683 34.751 61.9946H32.4542L32.2891 60.8724H32.2246C31.6051 61.6621 30.5506 62.2222 29.2486 62.2222C27.2203 62.2222 26.0834 60.7506 26.0834 59.2105C26.0834 56.6559 28.3365 55.3694 32.0605 55.3898V55.2235C32.0605 54.5585 31.7909 53.4577 30.0139 53.4577C29.02 53.4577 27.9842 53.7708 27.3031 54.2067L26.8059 52.5457C27.5505 52.0871 28.8549 51.6498 30.4476 51.6498C33.6748 51.6498 34.6047 53.708 34.6047 55.9088V59.5652Z" fill="white"/>
<path d="M36.3648 54.8921C36.3648 53.728 36.3418 52.7513 36.2816 51.8799H38.5135L38.6381 53.396H38.6993C39.1334 52.6082 40.2313 51.6499 41.9053 51.6499C43.6655 51.6499 45.4853 52.7929 45.4853 55.9916V61.9947H42.9401V56.2835C42.9401 54.8293 42.402 53.728 41.0168 53.728C40.0031 53.728 39.3013 54.4539 39.0309 55.2232C38.95 55.4527 38.9279 55.7649 38.9279 56.0525V61.9947H36.3648V54.8921Z" fill="white"/>
<path d="M53.9714 56.0951C53.9714 55.8887 53.9502 55.6393 53.9097 55.4315C53.6816 54.4345 52.8759 53.625 51.7169 53.625C50.0828 53.625 49.1731 55.0797 49.1731 56.9692C49.1731 58.8177 50.0828 60.1694 51.6971 60.1694C52.73 60.1694 53.6412 59.4624 53.8886 58.3615C53.9502 58.1325 53.9714 57.8812 53.9714 57.6115V56.0951ZM56.5151 47.816V59.1488C56.5151 60.1869 56.5575 61.3095 56.5979 61.9938H54.3227L54.2211 60.3961H54.1788C53.5791 61.5159 52.3556 62.2224 50.889 62.2224C48.4901 62.2224 46.5865 60.1694 46.5865 57.0528C46.5663 53.6661 48.6768 51.65 51.0969 51.65C52.4817 51.65 53.4756 52.2323 53.93 52.9827H53.9714V47.816H56.5151Z" fill="white"/>
<path d="M58.3139 51.8798H60.8826V61.9936H58.3139V51.8798Z" fill="white"/>
<path d="M62.6791 55.1412C62.6791 53.7706 62.6584 52.793 62.5958 51.8806H64.8099L64.8917 53.8103H64.9759C65.4717 52.3774 66.6514 51.8806 67.7271 51.8806C67.975 51.8806 68.1199 51.8376 68.3268 51.8806V54.1244C68.1199 54.0818 67.8927 54.0403 67.5808 54.0403C66.3616 54.0403 65.5342 54.829 65.3075 55.971C65.2661 56.1991 65.2252 56.4711 65.2252 56.763V61.9939H62.6791V55.1412Z" fill="white"/>
<path d="M69.506 51.8799H72.0696V61.9938H69.506V51.8799Z" fill="white"/>
<path fill-rule="evenodd" clip-rule="evenodd" d="M87.8978 41.1953C86.632 39.7477 85.2886 40.4014 84.2162 40.9351C83.7669 41.158 82.1362 42.248 80.52 43.0079C79.3685 43.5496 77.7156 43.3857 76.8092 42.2617C76.7542 42.1937 75.289 40.4113 75.1337 40.1917C74.1822 38.9935 71.7753 37.9998 68.8994 39.6523C67.3585 40.5478 63.7272 42.64 62.3697 43.4183C61.5447 43.841 59.6293 44.0256 58.5475 42.5583C58.5296 42.5342 57.1081 40.7532 57.0512 40.6847C57.0093 40.6366 56.0912 39.2693 54.0446 39.2273C53.7435 39.2197 52.2402 39.2108 50.7713 40.0481C48.8234 41.1669 44.29 43.7692 44.29 43.7692C44.2867 43.7692 44.2867 43.7716 44.2867 43.7716C42.4231 44.8427 40.9696 45.6744 40.9696 45.6744L42.6856 47.7921C43.4889 48.7919 45.298 49.5669 46.8681 48.662C46.8681 48.662 52.6678 45.2899 52.688 45.2805C55.197 43.8981 57.133 43.8981 58.4157 44.4129C59.5696 44.9008 60.5724 46.1193 60.5724 46.1193C60.5724 46.1193 61.8843 47.7514 62.1148 48.0367C62.8608 48.9586 64.0946 48.5968 64.0946 48.5968C64.0946 48.5968 64.5503 48.5439 65.2427 48.133C65.2427 48.133 70.859 44.8635 70.8623 44.8625C72.6469 43.8117 74.2838 43.6157 75.1187 43.6922C77.7372 43.9317 78.5515 45.7683 79.6879 47.0492C80.3563 47.8043 80.9588 48.2313 81.8812 48.2096C82.4885 48.1959 83.1729 47.828 83.274 47.7618L90.0003 43.8632C90.0003 43.8632 89.3112 42.8204 87.8978 41.1953Z" fill="#FFB700"/>
</g>
</g>
<defs>
<clipPath id="clip0_1_339">
<rect width="100" height="100" rx="25" fill="white"/>
</clipPath>
</defs>
</svg>
