<svg width="104" height="104" viewBox="0 0 104 104" fill="none" xmlns="http://www.w3.org/2000/svg">
<g clip-path="url(#clip0_1_225)">
<rect x="-2" y="-2" width="108" height="108" rx="8" fill="white"/>
<path fill-rule="evenodd" clip-rule="evenodd" d="M63.6181 71.9595C63.6264 71.8071 63.6352 71.5629 63.643 71.2281V64.8077L63.6223 64.1848C63.6172 64.0523 63.6107 63.9622 63.6042 63.9151C63.5973 63.8653 63.5867 63.8223 63.5719 63.7826C63.5239 63.6242 63.4172 63.5125 63.257 63.4455C63.1092 63.3832 62.8908 63.3532 62.6073 63.3509V63.1325H66.2737C66.8066 63.1334 67.2882 63.168 67.7181 63.2373C68.1475 63.3061 68.4934 63.4012 68.758 63.5222C69.5245 63.8856 69.9032 64.4974 69.899 65.3678C69.9078 66.6118 69.0895 67.4065 67.3958 67.6111L67.1118 67.6568C67.4928 67.6707 68.0081 67.7977 68.2477 67.8531C68.4856 67.908 68.7187 67.9953 68.9473 68.1144C69.8464 68.566 70.2892 69.2882 70.2804 70.287C70.285 71.5001 69.6935 72.2888 68.4929 72.6614C68.2307 72.7362 67.9019 72.7953 67.5043 72.8383C67.1053 72.8812 66.6722 72.9034 66.2054 72.9043H62.6073V72.6854C63.0307 72.6803 63.3221 72.6157 63.4509 72.4638C63.505 72.4121 63.5433 72.3553 63.5687 72.2902C63.5946 72.2241 63.6098 72.1114 63.6181 71.9595ZM64.7476 63.4326V67.5072H66.1781C67.8419 67.4975 68.7035 66.8062 68.7127 65.4223C68.7243 64.0791 67.816 63.4234 66.0553 63.4326H64.7476ZM68.999 70.178C68.9898 69.2282 68.6462 68.5568 67.9615 68.1814C67.7537 68.0752 67.4895 67.9934 67.1723 67.9357C66.8555 67.8785 66.506 67.8494 66.1236 67.848H64.7476V72.6037H66.1236C67.1206 72.6083 67.8492 72.4222 68.2981 72.032C68.5257 71.845 68.6984 71.591 68.8185 71.2724C68.9381 70.9538 68.9977 70.5881 68.999 70.178Z" fill="#3A3A3A"/>
<path d="M75.528 72.6255C75.4536 72.4782 75.4015 72.3032 75.3788 71.8557L75.3724 71.7232L75.2842 71.8225C75.1793 71.9412 75.0764 72.0437 74.9757 72.1309C74.8746 72.2191 74.7573 72.3092 74.6257 72.4006C74.3362 72.613 74.0573 72.7626 73.7899 72.8499C73.5225 72.9367 73.221 72.9792 72.8853 72.9764C72.3007 72.9787 71.8519 72.8402 71.5309 72.5673C71.3513 72.4057 71.2105 72.203 71.1075 71.9569C71.0045 71.7112 70.9519 71.4471 70.9496 71.1636C70.9565 70.1181 71.5984 69.4435 72.9112 69.1447C73.2584 69.0644 73.6255 68.9983 74.0115 68.9466C74.399 68.8949 74.8376 68.8524 75.3285 68.8192L75.3788 67.9072C75.3797 67.5955 75.3645 67.3429 75.334 67.1504C75.3036 66.9555 75.2532 66.7856 75.1826 66.642C74.9877 66.2624 74.5906 66.0805 74.0166 66.0805C73.0959 66.0758 72.5967 66.5141 72.545 67.3859C72.5394 67.5244 72.5265 67.6218 72.5085 67.6809C72.491 67.7363 72.4609 67.7774 72.4185 67.8075C72.327 67.8689 72.1811 67.9044 71.9715 67.9067C71.5203 67.9137 71.3513 67.7793 71.3587 67.5535C71.3615 67.3171 71.44 67.0885 71.5974 66.8682C71.7549 66.647 71.9742 66.4549 72.2578 66.291C72.7675 66.0084 73.4205 65.8644 74.2212 65.862C75.0971 65.8644 75.6845 66.0629 76.0054 66.442C76.1352 66.6018 76.2317 66.799 76.2945 67.0377C76.3568 67.2764 76.3887 67.5789 76.3882 67.9469L76.3869 68.0249L76.3799 68.3814L76.361 69.323L76.3471 70.6177L76.3338 71.2448C76.3347 71.5399 76.3471 71.7648 76.3675 72.0164C76.3878 72.2616 76.4755 72.535 76.6718 72.6075C76.8763 72.6832 77.073 72.7132 77.4475 72.7155C77.7227 72.71 77.9347 72.6786 78.0783 72.6176C78.2422 72.5479 78.3429 72.4002 78.3863 72.1905C78.4288 71.986 78.4472 71.6747 78.4426 71.2578V67.6034C78.4519 67.106 78.3941 66.756 78.2524 66.5732C78.1139 66.3945 77.8562 66.3173 77.502 66.321V66.1271L79.4516 65.9849V67.5378L79.5532 67.3568C79.8418 66.8428 80.1692 66.4794 80.5335 66.261C80.8978 66.0426 81.3545 65.9345 81.9045 65.9401C82.731 65.929 83.3068 66.2061 83.6439 66.7597C83.7672 66.9449 83.8573 67.1684 83.9108 67.4297C83.9644 67.6915 83.9912 68.0263 83.9898 68.4341V71.2578C83.9847 71.6789 84.0023 71.9924 84.0429 72.1961C84.0845 72.4057 84.1842 72.553 84.3486 72.6209C84.4843 72.6768 84.8011 72.7072 85.0712 72.7146C85.3243 72.7068 85.5201 72.6758 85.654 72.6172C85.8138 72.5475 85.9103 72.3992 85.9514 72.1896C85.9911 71.986 86.0082 71.6743 86.0031 71.2578V64.6185C86.0082 64.238 85.9925 63.9559 85.9541 63.7739C85.9144 63.5842 85.8165 63.4535 85.6563 63.3971C85.5173 63.3482 85.3091 63.3251 85.0357 63.3242V63.1298L87.0633 63.0264C87.0379 63.4766 87.0185 63.9369 87.0056 64.4075C86.9917 64.8988 86.9853 65.3278 86.9853 65.6949V70.1551L89.2193 67.7072C89.5351 67.3572 89.7078 67.0631 89.7101 66.8276C89.7263 66.4997 89.3952 66.3515 88.8517 66.3243V66.1308H91.7548V66.3275C91.5803 66.3478 91.4284 66.3797 91.2995 66.424C91.1591 66.4716 91.0151 66.5408 90.8682 66.6295C90.7191 66.7195 90.5944 66.8022 90.4933 66.8775C90.3903 66.9546 90.2689 67.064 90.1289 67.2062C89.989 67.348 89.7868 67.5632 89.5208 67.8522L88.7834 68.646L90.7135 71.6821C90.9338 72.0418 91.1365 72.2963 91.3226 72.4408C91.5004 72.5784 91.7271 72.6671 92 72.7091V72.9076H90.2347C90.1862 72.8088 90.1197 72.6809 90.0347 72.5239L89.754 72.0118L89.5393 71.6262L88.1106 69.298L86.988 70.554L86.9853 71.2578C86.9802 71.6743 86.9973 71.986 87.0374 72.1901C87.079 72.3997 87.1769 72.5479 87.339 72.6176C87.4807 72.6781 87.6918 72.71 87.966 72.7155V72.9076H81.9996V72.7151C82.4036 72.704 82.6812 72.638 82.7924 72.4907C82.8372 72.4334 82.8709 72.3683 82.8945 72.2953C82.9185 72.2219 82.9328 72.1273 82.9397 72.0118C82.9476 71.9204 82.9559 71.7888 82.9651 71.6156C82.9748 71.442 82.9799 71.3224 82.9808 71.2587V68.5163C82.9832 67.8398 82.9107 67.3392 82.7573 67.0211C82.5251 66.5205 82.1049 66.2698 81.5092 66.2675C80.8452 66.2652 80.3155 66.5815 79.923 67.2062C79.7753 67.4422 79.6608 67.7109 79.5781 68.0106C79.495 68.3112 79.453 68.6068 79.4516 68.8977V71.2578C79.4465 71.6789 79.464 71.9924 79.5047 72.1961C79.5462 72.4057 79.6455 72.553 79.8099 72.6209C79.9535 72.68 80.1673 72.7105 80.4462 72.7155V72.9076L77.5117 72.9072C77.2513 72.9159 76.7558 72.9293 76.5101 72.9261C76.2525 72.9224 76.1283 72.8952 75.8932 72.8776C75.6845 72.8167 75.5968 72.7622 75.528 72.6255ZM72.068 71.1229C72.0731 71.5671 72.1811 71.9282 72.3968 72.2007C72.6129 72.4745 72.9056 72.6149 73.2667 72.6218C73.6315 72.6167 73.9764 72.5216 74.2992 72.3369C74.6211 72.1522 74.8746 71.9061 75.0584 71.5999C75.1706 71.4046 75.2523 71.1534 75.3036 70.8491C75.3544 70.5462 75.3797 70.1694 75.3788 69.7192V69.0196C74.7254 69.0759 74.2581 69.1373 73.9183 69.2094C73.5761 69.2819 73.2741 69.3853 73.0109 69.5206C72.3861 69.8309 72.0726 70.3689 72.068 71.1229Z" fill="#3A3A3A"/>
<path fill-rule="evenodd" clip-rule="evenodd" d="M14.6579 68.7906V71.2218C14.6528 71.612 14.675 71.9015 14.7249 72.0904C14.7752 72.2797 14.8833 72.4044 15.05 72.4653C15.2166 72.5267 15.4725 72.5609 15.8174 72.5678V72.9072H12V72.5678C12.3255 72.5609 12.5661 72.5267 12.7222 72.4653C12.8783 72.4044 12.9794 72.2797 13.0256 72.0904C13.0718 71.9015 13.0921 71.612 13.087 71.2218V64.831C13.0921 64.4408 13.0718 64.1508 13.0274 63.9615C12.9826 63.7722 12.8857 63.6461 12.7365 63.5833C12.5869 63.52 12.3579 63.4831 12.048 63.4715V63.1317H15.6849C16.9109 63.1266 17.8085 63.3432 18.3793 63.7805C18.9495 64.2182 19.2312 64.9081 19.2248 65.8501C19.2285 67.1744 18.7131 68.0412 17.6783 68.4507C17.4082 68.5565 17.0637 68.6391 16.6453 68.6992C16.227 68.7587 15.762 68.7892 15.2499 68.7906H14.6579ZM14.6579 68.4115H15.2864C16.0414 68.4092 16.5969 68.2305 16.9533 67.8758C17.1473 67.6704 17.2941 67.4016 17.3943 67.0687C17.4945 66.7362 17.5449 66.3562 17.5453 65.9286C17.5412 64.3189 16.8365 63.5131 15.4309 63.5108H14.6579V68.4115Z" fill="#3A3A3A"/>
<path fill-rule="evenodd" clip-rule="evenodd" d="M25.3709 69.2012H20.9288C20.9339 69.6749 20.9616 70.0725 21.0124 70.3934C21.0627 70.7139 21.144 71.0071 21.2557 71.2726C21.6247 72.1324 22.1945 72.5619 22.9656 72.5619C23.4024 72.5596 23.7986 72.4312 24.1537 72.1763C24.5093 71.9214 24.8044 71.5552 25.0403 71.0768L25.3548 71.2856C25.0454 71.9011 24.6677 72.3532 24.2216 72.6418C23.7755 72.9304 23.2311 73.073 22.5884 73.0703C21.5771 73.0573 20.6476 72.7341 20.0648 72.1015C19.4825 71.4684 19.1856 70.6012 19.1741 69.5008C19.1856 68.3921 19.4728 67.5153 20.0353 66.8692C20.5972 66.2237 21.4954 65.8935 22.4628 65.8792C23.1065 65.8811 23.7275 66.0275 24.1685 66.3188C24.6095 66.6107 24.9346 67.0373 25.1447 67.5988C25.213 67.7854 25.2647 67.9987 25.3003 68.2388C25.3354 68.479 25.3589 68.7999 25.3709 69.2012ZM20.9412 68.8234H23.7201C23.7091 68.4217 23.6874 68.098 23.6555 67.8528C23.6241 67.6076 23.5742 67.3883 23.5063 67.1953C23.2718 66.5109 22.9111 66.1724 22.4254 66.1789C21.8805 66.1835 21.4737 66.5654 21.2054 67.3255C21.137 67.5222 21.0821 67.7378 21.0405 67.9719C20.999 68.2061 20.9657 68.49 20.9412 68.8234Z" fill="#3A3A3A"/>
<path d="M25.6551 66.0658L28.1191 65.8954C28.132 66.141 28.1421 66.3479 28.1486 66.5146C28.1551 66.6818 28.1583 66.8295 28.1583 66.957V67.3504C28.6935 66.3719 29.34 65.8778 30.0982 65.869C30.4256 65.8755 30.6915 65.9711 30.8961 66.1558C31.1002 66.3405 31.2059 66.5774 31.212 66.8655C31.2073 67.1052 31.1187 67.2973 30.9464 67.4418C30.7747 67.5868 30.5489 67.6612 30.2686 67.6648C29.9319 67.6755 29.7269 67.536 29.6526 67.2456C29.6041 67.0659 29.5538 66.9436 29.5016 66.8785C29.4499 66.8134 29.3732 66.7829 29.2725 66.7866H29.2462C28.9886 66.8087 28.7438 67.0138 28.5125 67.4026C28.4077 67.597 28.3287 67.8112 28.2761 68.0467C28.2239 68.2818 28.1976 68.5519 28.1976 68.8576V71.2823C28.1925 71.6693 28.2114 71.9546 28.2539 72.138C28.2964 72.3213 28.3929 72.4413 28.5434 72.4981C28.6935 72.5545 28.9281 72.5863 29.2462 72.5928V72.9077H25.6029V72.5928C25.8998 72.5942 26.1196 72.5655 26.2628 72.5064C26.4059 72.4478 26.4987 72.325 26.5417 72.138C26.5842 71.9505 26.6031 71.6656 26.5989 71.2823V67.6515C26.6109 67.1112 26.5569 66.7603 26.4364 66.5982C26.3163 66.4361 26.0554 66.3636 25.6551 66.3802V66.0658Z" fill="#3A3A3A"/>
<path d="M34.1389 65.8958L34.1523 67.1934C34.6829 66.3197 35.443 65.8783 36.4325 65.8695C37.4396 65.863 38.0598 66.3216 38.2934 67.246C38.5783 66.7699 38.9034 66.4209 39.2682 66.1987C39.6335 65.9771 40.0597 65.8672 40.5478 65.8695C41.3189 65.8741 41.8869 66.1272 42.2517 66.6296C42.3944 66.8198 42.4955 67.0525 42.5564 67.3278C42.6169 67.603 42.6465 67.9599 42.6446 68.3991V71.2823C42.6405 71.6656 42.6594 71.9505 42.7019 72.1375C42.7448 72.325 42.8377 72.4478 42.9808 72.5064C43.1239 72.5655 43.3437 72.5942 43.6411 72.5928V72.9077H40.0892V72.5928C40.3732 72.5942 40.5838 72.5655 40.7214 72.5064C40.859 72.4478 40.9486 72.325 40.9901 72.1375C41.0317 71.9505 41.0502 71.6656 41.046 71.2823V68.412C41.0488 67.7235 40.9643 67.2266 40.792 66.9214C40.6193 66.6162 40.3418 66.4666 39.9581 66.4726C39.4973 66.4638 39.1084 66.7039 38.7917 67.1934C38.5188 67.602 38.383 68.043 38.3853 68.5173V71.2823C38.3812 71.6656 38.3996 71.9505 38.4417 72.1375C38.4832 72.325 38.5742 72.4478 38.7136 72.5064C38.8531 72.5655 39.0669 72.5942 39.355 72.5928V72.9077H35.8429V72.5928C36.1268 72.5942 36.3379 72.5655 36.475 72.5064C36.6126 72.4478 36.7022 72.325 36.7438 72.1375C36.7853 71.9505 36.8038 71.6656 36.7996 71.2823V68.3991C36.8061 67.1015 36.4524 66.4592 35.738 66.4726C35.2934 66.4883 34.9207 66.6993 34.6206 67.1047C34.3204 67.5106 34.1643 68.0162 34.1523 68.6221V71.2823C34.1482 71.6697 34.1667 71.9569 34.2082 72.1435C34.2493 72.3305 34.3389 72.4524 34.4765 72.5097C34.6141 72.5669 34.8247 72.5946 35.1086 72.5928V72.9077H31.5568V72.5928C31.8541 72.5946 32.0739 72.5669 32.2171 72.5097C32.3602 72.4524 32.4535 72.3305 32.496 72.1435C32.5385 71.9569 32.5574 71.6697 32.5532 71.2823V67.639C32.5666 67.1057 32.5135 66.7603 32.3926 66.6019C32.272 66.4439 32.0024 66.3701 31.5835 66.3807V66.0662L34.1389 65.8958Z" fill="#3A3A3A"/>
<path d="M52.9591 66.4953V70.8728C52.9587 71.1577 52.9693 71.3936 52.9901 71.5802C53.0113 71.7667 53.0446 71.9242 53.0903 72.0521C53.1457 72.1985 53.2311 72.3153 53.3475 72.4026C53.4634 72.4899 53.5918 72.5351 53.7321 72.537C54.012 72.5328 54.3176 72.3975 54.6497 72.1306L54.833 72.4585C54.307 72.8995 53.7081 73.1179 53.0376 73.1137C52.3145 73.1026 51.8209 72.8625 51.5568 72.3929C51.505 72.289 51.4644 72.1703 51.4358 72.0373C51.4071 71.9044 51.3873 71.7247 51.3762 71.4989C51.3651 71.2727 51.3596 70.9674 51.36 70.5842V66.4953H50.6129V66.1023C50.8983 66.0912 51.1402 66.0312 51.3388 65.9217C51.5374 65.8123 51.7105 65.641 51.8583 65.4073C51.9742 65.2296 52.0698 65.0315 52.145 64.8144C52.2199 64.5969 52.2859 64.3273 52.3431 64.005L52.9984 63.9394C52.9896 64.113 52.9822 64.2889 52.9767 64.4672C52.9707 64.6454 52.9665 64.8601 52.9638 65.1113C52.9605 65.3621 52.9591 65.6839 52.9591 66.0755H54.5448V66.4953H52.9591Z" fill="#3A3A3A"/>
<path fill-rule="evenodd" clip-rule="evenodd" d="M50.6066 72.6297V72.9067C50.2228 72.9321 50.0681 72.9317 49.665 72.9321C49.345 72.9326 49.0139 72.9271 48.7392 72.8236C48.5693 72.7599 48.4741 72.7054 48.3476 72.5715C48.259 72.4311 48.2026 72.4237 48.174 72.0326C47.836 72.3979 47.4837 72.6666 47.1179 72.8384C46.7518 73.0106 46.3565 73.0956 45.933 73.0942C45.3041 73.0873 44.8123 72.9137 44.4573 72.5729C44.1017 72.2321 43.9211 71.7639 43.9147 71.1673C43.9124 70.0424 44.6119 69.3433 46.012 69.0704C46.6432 68.948 47.3594 68.8654 48.1611 68.8215V67.9696C48.168 67.2871 48.0955 66.8138 47.945 66.551C47.7944 66.2878 47.5257 66.1622 47.1387 66.1742C46.7282 66.1655 46.4354 66.3137 46.2609 66.6198C46.1972 66.7246 46.151 66.8456 46.1214 66.9819C46.0924 67.1181 46.0688 67.3074 46.0513 67.5503C46.0406 67.7835 45.9728 67.9492 45.8481 68.0481C45.7229 68.1469 45.5239 68.1949 45.2515 68.1926C44.6443 68.188 44.3386 67.9871 44.334 67.5895C44.3363 67.3577 44.4078 67.1365 44.5491 66.926C44.69 66.7154 44.8895 66.5302 45.1471 66.3705C45.6929 66.0343 46.4091 65.8685 47.2962 65.8727C48.1985 65.8685 48.8449 66.0472 49.236 66.4102C49.412 66.576 49.5413 66.7879 49.6239 67.0456C49.707 67.3032 49.7477 67.6329 49.7472 68.0351L49.7338 69.1752L49.7209 70.3153C49.7098 70.6889 49.7057 70.9249 49.7075 71.0232C49.7029 71.4956 49.7181 71.841 49.7523 72.0585C49.7865 72.2764 49.8243 72.372 49.9675 72.4902C50.2178 72.6334 50.432 72.6292 50.6066 72.6297ZM48.1611 70.132V69.1231C47.2228 69.1868 46.5574 69.3604 46.1644 69.6439C45.7714 69.9274 45.5807 70.3698 45.5923 70.971C45.5964 71.4425 45.6934 71.8165 45.8823 72.0931C46.0716 72.3697 46.3288 72.511 46.6539 72.5175C46.9208 72.5147 47.1669 72.4381 47.3927 72.2861C47.6185 72.1351 47.7963 71.9237 47.9251 71.6526C48.0096 71.4864 48.0701 71.2841 48.107 71.0445C48.144 70.8048 48.162 70.501 48.1611 70.132Z" fill="#3A3A3A"/>
<path fill-rule="evenodd" clip-rule="evenodd" d="M61.8911 72.6297V72.9068C61.5074 72.9322 61.3527 72.9327 60.9496 72.9331C60.6296 72.9336 60.2985 72.928 60.0237 72.8246C59.8538 72.7609 59.7587 72.7064 59.6322 72.5725C59.5435 72.4321 59.4872 72.4247 59.4585 72.0336C59.1205 72.3989 58.7682 72.6676 58.402 72.8394C58.0363 73.0116 57.641 73.0966 57.2176 73.0952C56.5887 73.0883 56.0969 72.9146 55.7418 72.5739C55.3862 72.2331 55.2057 71.7649 55.1992 71.1683C55.1969 70.0434 55.896 69.3443 57.2966 69.0714C57.9278 68.949 58.644 68.8664 59.4456 68.8225V67.9705C59.4525 67.2881 59.38 66.8148 59.2295 66.552C59.0785 66.2888 58.8098 66.1632 58.4233 66.1752C58.0128 66.1664 57.72 66.3147 57.5454 66.6208C57.4817 66.7256 57.4351 66.8466 57.406 66.9828C57.3769 67.1191 57.3534 67.3084 57.3358 67.5513C57.3252 67.7845 57.2573 67.9502 57.1326 68.0495C57.0075 68.1479 56.8085 68.1959 56.536 68.1936C55.9288 68.189 55.6231 67.9881 55.6185 67.5905C55.6208 67.3587 55.6924 67.1375 55.8337 66.927C55.9745 66.7164 56.174 66.5312 56.4312 66.3715C56.9775 66.0353 57.6937 65.8695 58.5807 65.8737C59.483 65.8695 60.1295 66.0482 60.5206 66.4112C60.6965 66.5769 60.8258 66.7889 60.9085 67.0466C60.9916 67.3042 61.0322 67.6339 61.0318 68.0361L61.0184 69.1762L61.0054 70.3163C60.9944 70.6899 60.9902 70.9258 60.9921 71.0242C60.9874 71.4966 61.0027 71.842 61.0368 72.0599C61.071 72.2774 61.1089 72.373 61.252 72.4912C61.5023 72.6344 61.7166 72.6293 61.8911 72.6297ZM59.4456 70.133V69.124C58.5073 69.1878 57.8414 69.3614 57.4489 69.6449C57.056 69.9284 56.8653 70.3708 56.8768 70.972C56.881 71.4435 56.9779 71.8175 57.1668 72.0941C57.3561 72.3707 57.6133 72.512 57.9384 72.5185C58.2053 72.5157 58.4514 72.439 58.6772 72.2871C58.903 72.1357 59.0803 71.9246 59.2096 71.6531C59.2941 71.4878 59.3546 71.2851 59.3916 71.0454C59.4285 70.8062 59.4465 70.5019 59.4456 70.133Z" fill="#3A3A3A"/>
<path d="M38.3927 40.808L38.361 41.4281L50.2585 55.3848L50.6856 55.4546L50.7395 55.4279L50.9483 55.041L45.8746 38.0579L45.0134 37.4776L38.3927 40.808Z" fill="#0097B9"/>
<path d="M57.4857 37.1413L65.1786 40.6783L65.1927 41.6761L52.568 60.7996L51.9916 60.9517L51.9065 60.9125L51.7267 60.4814L56.8152 37.514L57.4857 37.1413Z" fill="#80B13A"/>
<path d="M45.7345 31.7L46.0408 31.11L55.8899 31.0033L56.5264 31.6642L51.8078 47.4294L51.5088 47.603L51.4992 47.6025L51.1758 47.3846L45.7345 31.7Z" fill="#D81936"/>
<path fill-rule="evenodd" clip-rule="evenodd" d="M41.9112 42.1062L50.7097 55.4917L50.2417 55.4151L38.3289 41.4221L41.9112 42.1062Z" fill="#005874"/>
<path d="M45.0259 37.4624L45.8842 38.045L43.2185 41.5894L41.9807 41.0482L45.0259 37.4624Z" fill="#2FB8E7"/>
<path d="M41.9802 41.0479L41.911 42.1064L38.3292 41.4223L38.3667 40.8068L41.9802 41.0479Z" fill="#007592"/>
<path d="M43.2183 41.5901L45.8896 38.0401L51.0274 55.0374L50.7659 55.4771L43.2183 41.5901Z" fill="#007592"/>
<path d="M65.2191 41.6737L52.6046 60.8386L51.9596 61.0264L60.0677 42.1122L65.2191 41.6737Z" fill="#6E9123"/>
<path d="M58.615 41.3134L51.8871 60.9673L51.6976 60.4851L56.806 37.4945L58.615 41.3134Z" fill="#3F7937"/>
<path d="M65.1988 40.6781L65.2192 41.6737L60.0678 42.1128L59.7773 40.7485L65.1988 40.6781Z" fill="#A5C550"/>
<path d="M59.7775 40.7481L58.6145 41.312L56.8049 37.4925L57.4698 37.1176L59.7775 40.7481Z" fill="#5D8B27"/>
<path d="M50.2598 32.7602L49.5502 33.5986L45.7012 31.6818L46.012 31.0986L50.2598 32.7602Z" fill="#AF2C35"/>
<path d="M45.7007 31.6818L49.5502 33.5986L51.5017 47.6348L51.1602 47.4022L45.7007 31.6818Z" fill="#762624"/>
<path d="M51.4019 33.6004L56.5437 31.6569L51.8319 47.4505L51.5085 47.6343L51.4019 33.6004Z" fill="#B22B37"/>
<path d="M50.2604 32.7604L51.4017 33.6011L56.5441 31.6576L55.9003 31.0001L50.2604 32.7604Z" fill="#DC505E"/>
</g>
<rect x="1" y="1" width="102" height="102" rx="21" stroke="#CCCCCC" stroke-width="2"/>
<defs>
<clipPath id="clip0_1_225">
<rect x="2" y="2" width="100" height="100" rx="20" fill="white"/>
</clipPath>
</defs>
</svg>
